<svg xmlns="http://www.w3.org/2000/svg" fill="none" viewBox="0 0 40 40">
  <path fill="currentColor" fill-rule="evenodd" d="M36 26v2.4c2.2.8 4 3 4 5.6 0 3.4-2.6 6-6 6s-6-2.6-6-6c0-2.6 1.6-4.8 4-5.6V26c0-2.2-1.8-4-4-4H16v6.4c2.4.8 4 3 4 5.6 0 3.4-2.6 6-6 6s-6-2.6-6-6c0-2.6 1.6-4.8 4-5.6V22c-4.4 0-8-3.6-8-8v-2.4c-2.4-.8-4-3-4-5.6 0-3.4 2.6-6 6-6s6 2.6 6 6c0 2.6-1.6 4.8-4 5.6V14c0 2.2 1.8 4 4 4h16c4.4 0 8 3.6 8 8ZM8 6c0-1.2-.8-2-2-2-1 0-2 .8-2 2 0 1 .8 2 2 2s2-.8 2-2Zm6 30c-1.2 0-2-.8-2-2s.8-2 2-2 2 .8 2 2-.8 2-2 2Zm18-2c0 1.2.8 2 2 2 1 0 2-.8 2-2s-.8-2-2-2-2 .8-2 2Z" clip-rule="evenodd"/>
</svg>